PathFileType	4	(X/Y/Z)	 s08c0203.trc
DataRate	CameraRate	NumFrames	NumMarkers	Units	OrigDataRate	OrigDataStartFrame	OrigNumFrames
200	200	5	50	mm	200	1751	2000
Frame#	Time	racr			lacr			c7			jug			rlel			rdr			llel			ldr			s2			lic			ric			lasi			rasi			rpsi			lpsi			rgt			lgt			rth1			rth2			rth3			rth4			rlfc			rmfc			rsh1			rsh2			rsh3			rsh4			rlmal			rmmal			rcal			rtoe			rmt5			lth1			lth2			lth4			lth3			llfc			lmfc			llmal			lmmal			lcal			lmt5			lsh1			lsh2			lsh3			lsh4			ltoe			SBIKE			LBIKE			RBIKE			
		X1	Y1	Z1	X2	Y2	Z2	X3	Y3	Z3	X4	Y4	Z4	X5	Y5	Z5	X6	Y6	Z6	X7	Y7	Z7	X8	Y8	Z8	X9	Y9	Z9	X10	Y10	Z10	X11	Y11	Z11	X12	Y12	Z12	X13	Y13	Z13	X14	Y14	Z14	X15	Y15	Z15	X16	Y16	Z16	X17	Y17	Z17	X18	Y18	Z18	X19	Y19	Z19	X20	Y20	Z20	X21	Y21	Z21	X22	Y22	Z22	X23	Y23	Z23	X24	Y24	Z24	X25	Y25	Z25	X26	Y26	Z26	X27	Y27	Z27	X28	Y28	Z28	X29	Y29	Z29	X30	Y30	Z30	X31	Y31	Z31	X32	Y32	Z32	X33	Y33	Z33	X34	Y34	Z34	X35	Y35	Z35	X36	Y36	Z36	X37	Y37	Z37	X38	Y38	Z38	X39	Y39	Z39	X40	Y40	Z40	X41	Y41	Z41	X42	Y42	Z42	X43	Y43	Z43	X44	Y44	Z44	X45	Y45	Z45	X46	Y46	Z46	X47	Y47	Z47	X48	Y48	Z48	X49	Y49	Z49	X50	Y50	Z50	
1751	8.7550	492.162475	1382.310231	-53.721574	492.674836	1382.097788	-402.290061	484.838087	1448.442449	-228.728717	442.722362	1295.158740	-220.791312	553.929819	1141.294670	38.774819	750.149385	925.776523	-50.559679	554.182037	1131.457439	-487.843805	757.230417	929.504780	-426.330109	-55.763364	1191.056660	-226.834071	106.149557	1189.892807	-371.090499	101.087520	1209.087042	-57.967051	133.366478	1147.942371	-328.280248	131.516883	1149.243700	-88.179555	-23.843666	1231.079797	-175.816586	-24.228413	1233.872110	-270.204331	29.060020	1083.092059	-30.107649	68.975057	1088.162238	-409.817921	141.212236	940.463521	-24.034935	211.345493	885.546367	-25.863485	244.193402	805.872878	-40.210556	240.769850	908.119703	-31.293508	316.309868	711.191236	-56.891500	299.770820	695.584329	-164.677134	282.501882	581.976062	-26.881368	306.424162	496.878877	-43.158651	283.516071	413.275901	-49.487546	334.027579	500.938052	-72.601970	276.230868	292.719832	-58.159724	289.568118	317.638469	-145.639882	203.780654	251.781690	-104.482078	501.629566	286.643516	-102.689875	417.065467	241.208544	-36.970758	161.019093	1010.079679	-416.087353	252.870402	983.786160	-407.510072	270.476394	1010.604364	-388.789049	314.275073	919.411598	-414.324921	392.296646	814.603801	-395.006181	387.961306	787.216363	-285.220791	88.872415	536.890049	-396.906826	120.936487	532.024327	-312.817450	26.297005	561.693030	-356.951046	135.804840	377.991006	-417.125686	309.943465	719.717344	-418.942688	260.460005	651.955560	-401.674259	182.081405	610.858920	-403.531358	277.533665	639.507192	-370.446918	215.791223	344.016530	-347.908663	-204.352108	916.507334	-224.618421	-7.333937	83.376222	-426.955573	-10.437956	80.037439	-28.774536	
1752	8.7600	492.847231	1382.675053	-54.621639	492.439676	1381.973357	-403.290591	484.996956	1448.423277	-229.833204	443.169260	1295.114260	-221.621907	554.670314	1141.971004	38.446420	750.051231	925.495029	-51.163594	553.949839	1131.266941	-488.669177	757.243384	929.597494	-426.788065	-55.469902	1190.906549	-225.370294	105.508188	1190.160994	-370.675596	102.577179	1208.052117	-57.325200	133.050932	1148.687465	-327.534176	132.456873	1147.498170	-87.653356	-23.205607	1230.642077	-174.010691	-24.206309	1233.976357	-268.278582	29.364045	1081.344987	-29.815366	68.902232	1090.409149	-409.485612	138.273049	936.275042	-23.957782	207.392444	879.645574	-25.857145	238.136573	799.412245	-40.868627	236.993118	901.667269	-31.712874	308.150211	703.852787	-57.622784	290.285691	687.636058	-165.279408	274.969869	574.622240	-27.076277	299.558641	489.663049	-43.376286	277.392194	405.943145	-49.751153	327.647008	493.819648	-72.945773	271.478291	284.974435	-58.194228	285.060255	309.675845	-145.826666	199.233195	244.927740	-104.640112	497.438921	276.301549	-102.653176	412.321491	231.886327	-36.977405	161.969362	1014.235972	-415.381461	254.265508	989.742903	-406.555501	271.284564	1016.777926	-387.568850	317.048440	926.728691	-413.677752	397.202448	823.108966	-394.604158	393.287427	794.957003	-284.585010	93.065249	546.068613	-396.781776	125.119511	541.228383	-312.723198	29.897601	570.418849	-356.872716	141.052711	387.472761	-416.912619	315.145514	728.271420	-418.563552	265.412282	660.585150	-401.431281	186.842348	619.866750	-403.271318	282.336802	647.948277	-370.102960	220.946719	354.060663	-347.853242	-204.381536	916.502968	-224.615347	-7.334627	83.318288	-426.983007	-10.444853	80.028689	-28.762092	
1753	8.7650	493.465123	1383.032631	-55.601953	492.032418	1381.498173	-404.067189	485.162057	1448.395652	-230.922787	443.674481	1295.104474	-222.508635	555.461749	1142.600695	38.026111	749.980971	925.171230	-51.780041	553.691769	1131.120493	-489.505514	757.278290	929.668171	-427.231954	-55.170724	1190.770519	-223.967407	104.633508	1190.291691	-369.820445	104.113219	1206.715522	-56.713387	132.721629	1149.270925	-326.682004	133.261677	1145.701685	-87.187565	-22.417409	1230.153417	-172.304684	-24.203048	1233.947219	-266.356905	29.587444	1079.553212	-29.593090	68.832404	1092.706148	-409.218038	135.335753	932.379886	-23.821115	202.861406	873.791048	-26.392456	232.007773	793.058555	-41.454130	233.252012	895.371872	-32.276448	300.201687	696.980461	-58.507610	280.768698	680.268670	-166.016627	267.377958	567.883702	-27.396774	292.543284	483.174723	-43.513266	270.915307	399.200253	-49.984460	320.717964	487.518533	-73.050324	266.315177	277.922247	-58.195650	279.866193	302.656364	-146.036218	194.241822	238.680180	-104.990227	492.916118	266.197996	-102.577942	407.070570	222.990629	-37.053362	162.860269	1018.385527	-414.690160	255.488506	995.249038	-405.159715	271.964115	1023.007804	-386.552816	319.641801	933.925774	-412.933872	402.010865	831.545696	-394.148703	398.567770	802.707003	-284.056694	97.534658	554.820507	-396.627399	129.448603	550.398225	-312.565208	33.621745	578.737436	-356.982055	146.534385	396.710337	-416.907530	320.419554	736.617882	-418.116904	270.377261	669.049797	-400.996469	191.682840	628.987589	-403.806006	287.325198	656.501242	-369.945773	226.689621	363.914080	-347.680082	-204.499146	916.501648	-224.679438	-7.348611	83.299081	-426.995659	-10.456557	80.017970	-28.772485	
1754	8.7700	494.164825	1383.493056	-56.599806	491.688928	1381.239675	-405.029402	485.286767	1448.364224	-232.046854	444.140605	1295.076776	-223.355874	556.271816	1143.187217	37.605601	749.911351	924.857851	-52.479762	553.441397	1130.977084	-490.383666	757.321406	929.810628	-427.739849	-54.886616	1190.639818	-222.733856	103.986454	1190.489498	-369.180111	105.733614	1205.333656	-56.128780	132.498776	1149.869576	-325.915497	134.020864	1143.833194	-86.745318	-23.563786	1230.569036	-169.419730	-24.505982	1234.123945	-264.462213	29.744198	1077.749465	-29.450568	68.787317	1095.084678	-408.993574	132.386626	928.642802	-23.984544	198.751767	868.657395	-26.444796	225.587246	787.422174	-41.497764	229.467893	889.550490	-32.839919	292.500512	690.518850	-59.405578	271.565014	673.319932	-166.606032	259.721096	561.773871	-27.628878	285.290842	477.260240	-43.747244	264.193845	393.181365	-50.071215	313.631732	481.664277	-73.205854	260.731055	271.346513	-58.300168	275.524639	295.730547	-145.864457	188.947768	233.138799	-105.219708	487.829420	256.780836	-102.423805	401.427772	214.485819	-37.027891	170.583969	1021.182210	-409.737453	256.778454	1000.854927	-403.874509	272.627744	1028.953431	-385.529805	322.091659	940.865916	-412.436220	405.852413	839.663227	-392.635388	403.798431	810.445543	-283.672422	102.163260	563.216491	-396.477715	133.997593	559.091327	-312.395631	37.551647	586.430643	-356.958844	152.459257	405.645046	-416.881109	325.706515	744.949447	-417.675323	275.503756	677.621378	-400.774799	196.676974	637.658025	-403.543730	292.352261	664.793586	-369.642064	232.940021	373.644279	-347.561869	-204.391207	916.534095	-224.603395	-7.340351	83.316488	-427.008805	-10.466142	80.023019	-28.761405	
1755	8.7750	494.922196	1383.966103	-57.521384	491.301010	1381.082479	-405.953950	485.386304	1448.337394	-233.130940	444.607696	1295.013384	-224.222547	557.100315	1143.755365	36.912846	749.896094	924.522541	-53.123821	553.238484	1130.874249	-491.209226	757.374514	929.982642	-428.192859	-54.615551	1190.413145	-221.483437	103.423839	1190.678384	-368.704749	107.336449	1203.877681	-55.574510	132.224218	1150.389556	-325.085741	134.796790	1141.971847	-86.329447	-23.158734	1229.983496	-167.465348	-24.710599	1234.214355	-262.515318	29.820250	1075.958204	-29.354632	68.787651	1097.450572	-408.781287	129.524673	925.152436	-23.716128	194.655368	863.889730	-26.517341	219.738561	781.973221	-41.229002	225.682036	884.074370	-33.466218	284.985028	684.432929	-60.379955	262.479620	667.057363	-167.219662	252.136957	556.168728	-27.841860	278.083303	471.806943	-43.787430	257.299851	387.535063	-50.203253	306.380188	476.262675	-73.188285	254.911518	265.296084	-58.361561	268.950995	289.560699	-146.576910	183.204233	228.123246	-105.472428	482.416589	247.140661	-102.307083	395.330587	206.203054	-37.047485	171.386384	1025.095385	-409.192006	257.945400	1006.379568	-403.205637	273.232747	1034.734063	-384.603994	324.453068	947.732236	-411.845308	410.278595	848.046173	-392.081588	408.975510	818.151801	-283.468768	107.135776	571.228292	-396.592157	138.733107	567.327687	-312.281474	41.428952	593.518238	-356.921695	158.932466	414.316667	-416.836770	330.787641	753.363623	-417.265505	281.519583	687.637211	-402.985936	201.708170	646.170461	-403.243066	297.402837	672.960319	-369.288018	239.871868	383.799186	-347.219659	-200.717271	921.475465	-223.334248	-7.349110	83.306717	-426.993528	-10.459343	80.017481	-28.780469	
